# xmcd
#
# Track frame offsets:
#  150
#  26338
#  50292
#  71859
#  92974
#  118048
#  140294
#  164847
#  201510
#  221956
#  253603
#  278522
#  298913
#
# Disc length: 4320 seconds
#
# Revision: 0
# Processed by: cddbd v1.5.2PL0 Copyright (c) Steve Scherf et al.
# Submitted via: Collectorz.com_Music_Collector 6.11
#
DISCID=d510de0d
DTITLE=Lucinda Williams - A Night in Ancienne Belgique [CD1)
DYEAR=2006
DGENRE=Country/Rock
TTITLE0=Ventura
TTITLE1=Fruits of my labor
TTITLE2=Pineola
TTITLE3=Drunken angel
TTITLE4=Lake Charles
TTITLE5=What if ?
TTITLE6=Righteously
TTITLE7=Out of touch
TTITLE8=Changed the locks
TTITLE9=Essence
TTITLE10=Unsuffer me
TTITLE11=Disgusted
TTITLE12=Joy
EXTD=
EXTT0=
EXTT1=
EXTT2=
EXTT3=
EXTT4=
EXTT5=
EXTT6=
EXTT7=
EXTT8=
EXTT9=
EXTT10=
EXTT11=
EXTT12=
PLAYORDER=
